Coordinates
version=1
nRows=15
nColumns=34
inDegrees=yes

Units are S.I. units (second, meters, Newtons, ...)
If the header above contains a line with 'inDegrees', this indicates whether rotational values are in degrees (yes) or radians (no).

endheader
time	pelvis_tilt	pelvis_list	pelvis_rotation	pelvis_tx	pelvis_ty	pelvis_tz	hip_flexion_r	hip_adduction_r	hip_rotation_r	knee_angle_r	ankle_angle_r	subtalar_angle_r	mtp_angle_r	hip_flexion_l	hip_adduction_l	hip_rotation_l	knee_angle_l	ankle_angle_l	subtalar_angle_l	mtp_angle_l	lumbar_extension	lumbar_bending	lumbar_rotation	arm_flex_r	arm_add_r	arm_rot_r	elbow_flex_r	pro_sup_r	arm_flex_l	arm_add_l	arm_rot_l	elbow_flex_l	pro_sup_l
      0.00000000	     -0.45662890	     -4.70650409	      0.44986638	    -10.13146744	      0.86601668	      0.51204427	     -6.46467529	      2.51587456	     -6.78120228	      3.86082371	      1.34773870	    -21.49054753	      0.00000000	     -3.42150375	     -5.23361090	     -2.77259643	      9.81751707	      6.98044064	    -16.66107122	      0.00000000	     11.35211485	     -5.58947184	     18.85793635	   -234.62902423	    -87.01705585	     36.20364995	     99.17959231	     77.45684333	   -231.87317730	      8.42905920	     95.64611446	      0.00000000	     65.35985718
      0.01666670	      4.40206991	     -3.50129542	      1.59971845	    -10.13268600	      0.87400676	      0.51234288	    -11.25253984	      2.32302448	     -8.01648206	      3.74355460	      3.73603251	    -20.65105968	      0.00000000	     -9.48782052	     -3.77797080	     -1.84822811	      8.02235553	      6.58382763	    -16.77616244	      0.00000000	      4.98873067	     -7.35061591	     21.76648533	   -232.81927446	    -90.70059789	     33.78081161	    103.85527443	     78.64182815	   -232.69532076	     11.47605047	     96.98981879	      0.00000000	     62.53207273
      0.03333330	      4.79762161	     -2.01693197	      2.13365209	    -10.13640951	      0.87512103	      0.51450582	    -11.86555185	      1.07873767	    -10.01550840	      3.05307042	      4.83255710	    -18.41679752	      0.00000000	    -10.19903434	     -2.35008337	     -2.05427230	      7.51799387	      8.04144910	    -15.25870420	      0.00000000	      4.26189363	     -9.77053199	     23.35991954	   -231.43343553	    -95.13032226	     33.06418743	    106.05348159	     80.36461589	   -233.00552027	     13.85120387	     97.17091474	      0.00000000	     58.95096388
      0.05000000	      5.89850108	     -1.64897532	      2.77986891	    -10.13766472	      0.87792722	      0.51498270	    -13.66305732	      0.71262050	     -9.85231597	      2.25424059	      4.13982406	    -17.42825157	      0.00000000	    -12.01523555	     -2.05996720	     -1.86787222	      6.08538882	      7.19317921	    -15.06435563	      0.00000000	      3.51077252	    -10.23191402	     23.67086483	   -231.37252090	    -96.35664730	     33.46448203	    108.11751104	     80.85814466	   -234.14578428	     14.87186758	     96.92682044	      0.00000000	     57.92165114
      0.06666670	      7.96801361	     -1.01192783	      3.58262995	    -10.13459374	      0.88152577	      0.51512043	    -17.06333257	      0.50405362	     -9.85450065	      0.72233450	      3.50933297	    -16.86391387	      0.00000000	    -14.87188389	     -1.65393884	     -1.13755799	      4.85293625	      6.39522934	    -14.98833744	      0.00000000	      0.92367492	    -11.35883409	     23.04024210	   -229.82538380	    -96.53760281	     33.15734305	    107.74280697	     82.10041548	   -233.32693433	     15.53870541	     94.91575712	      0.00000000	     54.06193711
      0.08333330	      7.95680340	     -0.86291202	      3.88854436	    -10.13040236	      0.88362934	      0.51516098	    -17.71323319	      0.54644290	     -9.55224181	      0.00000000	      2.93402847	    -16.41280791	      0.00000000	    -15.13486289	     -1.59085154	     -0.85063009	      4.38320366	      5.96792837	    -14.57978804	      0.00000000	      1.33840312	    -11.53990079	     23.04599252	   -229.88555260	    -96.98787546	     33.31669437	    108.15940769	     82.17767000	   -233.77404317	     15.63408385	     94.76034485	      0.00000000	     53.82445133
      0.10000000	      7.96209187	     -0.82920405	      3.92711602	    -10.12909673	      0.88444801	      0.51515337	    -17.86691486	      0.54114277	     -9.57688865	      0.00000000	      2.87745496	    -16.39700415	      0.00000000	    -15.15937218	     -1.56984550	     -0.89927968	      4.37553519	      5.92175820	    -14.57537918	      0.00000000	      1.46675525	    -11.52805437	     23.02719061	   -229.86998812	    -97.07870614	     33.30999404	    108.18180876	     82.18053634	   -233.79311279	     15.60318758	     94.74077045	      0.00000000	     53.80530185
      0.11666670	      8.03196169	     -0.71026658	      3.90345120	    -10.12859974	      0.88510979	      0.51523349	    -17.98521807	      0.47646010	    -10.44193888	      0.00000000	      1.59434290	    -16.20729981	      0.00000000	    -15.38967141	     -1.44213392	     -1.26238157	      3.94480528	      4.85042972	    -14.20342249	      0.00000000	      1.50973737	    -11.65365199	     23.40273449	   -230.06568472	    -98.25235796	     33.75030938	    108.75798924	     82.23353522	   -234.35196071	     15.89758246	     94.30494265	      0.00000000	     53.44341563
      0.13333330	      8.03470086	     -0.68904651	      3.88449153	    -10.12762958	      0.88410640	      0.51559076	    -17.99922413	      0.50648247	    -10.44516124	      0.00000000	      1.58860021	    -16.20780808	      0.00000000	    -15.36389227	     -1.42585800	     -1.26274801	      3.93266056	      4.84681078	    -14.20188928	      0.00000000	      1.49886565	    -11.64411633	     23.39341053	   -230.06590973	    -98.26240227	     33.75217009	    108.75922496	     82.23359164	   -234.35755473	     15.90322141	     94.30180879	      0.00000000	     53.44103330
      0.15000000	      7.42730693	     -0.65923921	      4.06729684	    -10.12774759	      0.88336669	      0.51657155	    -17.30185765	      0.58724990	    -10.22256770	      0.00000000	     -0.81473345	    -18.90044425	      0.00000000	    -14.66412529	     -1.44067615	     -0.93034931	      3.84252420	      3.92165758	    -14.63050826	      0.00000000	      2.00492974	    -12.50783561	     23.85031061	   -229.30668961	   -101.28774104	     34.47628375	    109.09454082	     81.76064463	   -233.93462910	     17.47904510	     89.89147512	      0.00000000	     50.22909071
      0.16666670	      7.46755343	     -0.63134206	      4.07443692	    -10.13002759	      0.88329888	      0.51756705	    -17.28408967	      0.61798820	    -10.21945198	      0.00000000	     -0.81786203	    -18.89842252	      0.00000000	    -14.67179297	     -1.43783940	     -0.92676176	      3.83862915	      3.91784058	    -14.62655491	      0.00000000	      2.03057658	    -12.50571690	     23.84521641	   -229.30744678	   -101.28841127	     34.47648706	    109.09654652	     81.76013463	   -233.93204096	     17.48007401	     89.88995813	      0.00000000	     50.22772882
      0.18333330	      7.50150824	     -0.61647657	      4.18618232	    -10.13187177	      0.88418575	      0.51830177	    -17.19934234	      0.71400192	    -10.14886305	      0.00000000	     -0.83481909	    -18.87218776	      0.00000000	    -14.64991972	     -1.51122524	     -0.89224920	      3.72239273	      3.86083598	    -14.58257115	      0.00000000	      1.93600096	    -12.58818681	     23.88032990	   -229.32126140	   -101.25671938	     34.49456730	    109.11944393	     81.75661203	   -234.00081280	     17.48418083	     89.87941455	      0.00000000	     50.21886462
      0.20000000	      8.12399055	     -0.57374642	      4.09751556	    -10.13089919	      0.88562171	      0.51832817	    -17.75991103	      0.70997805	     -9.02124591	      0.00000000	     -0.80484806	    -18.75616761	      0.00000000	    -15.82799686	     -1.46876180	     -0.88293587	      2.40401093	      2.15651430	    -14.64977074	      0.00000000	      1.10331139	    -12.45043251	     23.84671956	   -228.91903779	   -100.89466387	     34.52343918	    109.97638793	     81.38696128	   -234.29082800	     17.43032379	     88.98079327	      0.00000000	     49.43858535
      0.21666670	      8.03194552	     -0.43930370	      4.18572885	    -10.12906770	      0.88669306	      0.51826135	    -17.59273337	      0.61541823	     -8.58475700	      0.00000000	     -0.73489115	    -18.60828106	      0.00000000	    -15.98442255	     -1.32918275	     -0.76346874	      1.50688039	      1.53370166	    -14.51097057	      0.00000000	      0.79512928	    -12.64240043	     23.50682406	   -228.62092594	   -100.87064709	     34.31315241	    110.06316322	     81.27426852	   -234.13680310	     17.23587308	     88.75036131	      0.00000000	     49.22317022
      0.23333330	      9.22001538	     -0.16539589	      4.16614066	    -10.12983683	      0.88914917	      0.51877285	    -18.87379085	      0.45349988	     -8.45303216	      0.00000000	     -0.41200139	    -18.09005027	      0.00000000	    -17.61801586	     -1.10527951	     -0.34804792	      0.40326215	     -0.51081410	    -16.29436504	      0.00000000	     -1.22972930	    -13.14408502	     23.06332929	   -227.35436275	   -100.80217380	     34.22201139	    110.04949794	     79.91348068	   -233.36070141	     17.34909057	     86.23161634	      0.00000000	     46.62937118
